<?xml version="1.0" encoding="utf-8"?>
<!-- Generator: Adobe Illustrator 15.1.0, SVG Export Plug-In . SVG Version: 6.00 Build 0)  -->
<!DOCTYPE svg PUBLIC "-//W3C//DTD SVG 1.1//EN" "http://www.w3.org/Graphics/SVG/1.1/DTD/svg11.dtd">
<svg version="1.1" id="Layer_1" xmlns="http://www.w3.org/2000/svg" xmlns:xlink="http://www.w3.org/1999/xlink" x="0px" y="0px"
	 width="65.762px" height="25.032px" viewBox="76.952 42.484 65.762 25.032" enable-background="new 76.952 42.484 65.762 25.032"
	 xml:space="preserve">
<g>
	<g>
		<path fill="#FFFFFF" d="M141.517,48.225c-0.049,0.031-0.139,0.045-0.271,0.045h-0.435v-0.527h0.452
			c0.136,0,0.23,0.021,0.279,0.062c0.053,0.044,0.072,0.11,0.072,0.201C141.617,48.107,141.583,48.181,141.517,48.225
			 M141.946,49.221c-0.042-0.062-0.063-0.143-0.063-0.237v-0.2c0-0.129-0.016-0.215-0.043-0.268
			c-0.025-0.053-0.08-0.098-0.161-0.138c0.089-0.058,0.146-0.11,0.174-0.158c0.032-0.066,0.05-0.143,0.05-0.234
			c0-0.105-0.023-0.197-0.072-0.276c-0.05-0.079-0.107-0.135-0.187-0.169c-0.074-0.035-0.199-0.054-0.373-0.054h-0.743v1.782h0.285
			v-0.744h0.441c0.111,0,0.185,0.005,0.226,0.019c0.038,0.016,0.063,0.039,0.086,0.072c0.021,0.034,0.031,0.091,0.036,0.169
			l0.016,0.221c0.008,0.101,0.021,0.188,0.045,0.264h0.312L141.946,49.221z M142.324,49.056c-0.117,0.206-0.281,0.369-0.486,0.489
			c-0.209,0.12-0.432,0.181-0.664,0.181c-0.234,0-0.459-0.061-0.666-0.18c-0.207-0.121-0.373-0.282-0.49-0.49
			c-0.118-0.204-0.178-0.425-0.178-0.663c0-0.239,0.06-0.461,0.178-0.672c0.117-0.208,0.283-0.371,0.49-0.488
			c0.207-0.121,0.432-0.181,0.666-0.181c0.236,0,0.455,0.06,0.664,0.181c0.203,0.117,0.365,0.28,0.482,0.488
			c0.122,0.211,0.18,0.431,0.18,0.666C142.5,48.628,142.442,48.851,142.324,49.056 M142.505,47.616
			c-0.141-0.241-0.326-0.429-0.564-0.565c-0.234-0.14-0.495-0.207-0.771-0.207c-0.271,0-0.535,0.067-0.771,0.207
			c-0.236,0.137-0.426,0.327-0.566,0.567c-0.139,0.243-0.207,0.501-0.207,0.776c0,0.271,0.068,0.529,0.207,0.768
			c0.142,0.238,0.33,0.428,0.57,0.565c0.235,0.139,0.496,0.207,0.77,0.207c0.274,0,0.533-0.068,0.771-0.208
			c0.237-0.14,0.43-0.327,0.566-0.565c0.139-0.237,0.205-0.497,0.205-0.774C142.714,48.114,142.647,47.858,142.505,47.616"/>
		<path fill="#FFFFFF" d="M130.958,53.778c0,0,0.041-3.295,2.793-3.295c2.582,0,2.748,3.295,2.748,3.295H130.958z M139.83,54.688
			c0.008-3.81-2.486-6.383-6.043-6.418c-4.953-0.049-6.442,3.777-6.404,6.964c0.039,3.442,2.279,6.495,6.964,6.536
			c1.702,0.011,3.026-0.135,4.628-0.754l-0.729-2.439c0,0-3.185,1.428-5.634,0.014c-1.536-0.888-1.71-2.488-1.71-2.488l8.814,0.002
			C139.716,56.104,139.83,55.363,139.83,54.688"/>
	</g>
	<rect x="121.608" y="42.49" fill="#FFFFFF" width="3.665" height="19.013"/>
	<g>
		<path fill="#FFFFFF" d="M114.878,57.32c-0.019,0.826,0.08,1.339-0.334,1.467c-0.961,0.302-4.271,0.808-5.371-2.104
			c-0.361-0.959-0.486-3.287,0.697-4.648c0.943-1.091,1.951-1.115,2.328-1.115c0.51,0,1.102,0.091,1.602,0.487
			c0.515,0.412,0.898,0.975,1.031,2.287C114.902,54.339,114.9,56.43,114.878,57.32 M114.853,42.484v6.846
			c0,0-1.693-1.458-4.644-0.995c-3.607,0.567-4.986,3.967-5.014,6.46c-0.035,3.561,1.874,5.275,3.65,6.135
			c1.613,0.78,3.104,0.911,4.669,0.842c2.745-0.125,4.978-1.178,4.978-1.178v-18.11H114.853z"/>
		<path fill="#FFFFFF" d="M97.107,59.37c-2.101,0-3.058-1.984-3.058-4.302c0-2.476,1.018-4.376,3.038-4.376
			c2.034,0,2.986,1.916,2.986,4.301C100.074,57.391,99.103,59.37,97.107,59.37 M97.163,48.286c-4.768,0-6.864,2.927-6.864,6.842
			c0,3.724,2.289,6.647,6.653,6.647c4.516,0,6.868-2.598,6.868-6.879C103.82,51.29,101.63,48.286,97.163,48.286"/>
		<path fill="#FFFFFF" d="M79.002,67.516l-0.757-2.937c0,0,1.022-0.104,2.604-1.34c1.273-0.998,1.104-2.232,1.104-2.232
			L76.952,48.57l4.056,0.012l2.999,8.828l2.418-8.84h3.885c0,0-1.128,3.187-2.5,7c-0.919,2.535-1.868,5.471-3.043,7.533
			c-0.885,1.558-1.82,2.562-2.759,3.213C80.441,67.406,79.002,67.516,79.002,67.516"/>
	</g>
</g>
</svg>
