<?xml version="1.0" encoding="utf-8"?>
<!-- Generator: Adobe Illustrator 15.1.0, SVG Export Plug-In . SVG Version: 6.00 Build 0)  -->
<!DOCTYPE svg PUBLIC "-//W3C//DTD SVG 1.1//EN" "http://www.w3.org/Graphics/SVG/1.1/DTD/svg11.dtd">
<svg version="1.1" id="Layer_1" xmlns="http://www.w3.org/2000/svg" xmlns:xlink="http://www.w3.org/1999/xlink" x="0px" y="0px"
	 width="65.762px" height="25.032px" viewBox="0 0 65.762 25.032" enable-background="new 0 0 65.762 25.032" xml:space="preserve">
<g>
	<g>
		<path fill="#005A8C" d="M64.565,5.741c-0.049,0.031-0.139,0.045-0.271,0.045h-0.436V5.258h0.453c0.135,0,0.23,0.021,0.279,0.062
			c0.053,0.044,0.072,0.109,0.072,0.201C64.664,5.623,64.631,5.697,64.565,5.741 M64.992,6.737C64.951,6.674,64.93,6.594,64.93,6.5
			v-0.2c0-0.129-0.016-0.215-0.043-0.268c-0.025-0.053-0.08-0.098-0.16-0.139c0.088-0.058,0.146-0.109,0.174-0.158
			c0.031-0.065,0.049-0.143,0.049-0.233c0-0.104-0.021-0.196-0.07-0.276c-0.051-0.078-0.107-0.135-0.188-0.168
			c-0.074-0.035-0.199-0.055-0.373-0.055h-0.744v1.782h0.285V6.041h0.441c0.111,0,0.186,0.005,0.227,0.019
			c0.037,0.017,0.062,0.039,0.086,0.072c0.021,0.034,0.031,0.092,0.035,0.17l0.018,0.221c0.008,0.101,0.02,0.188,0.045,0.264h0.311
			L64.992,6.737z M65.371,6.572c-0.117,0.206-0.281,0.368-0.486,0.489c-0.209,0.119-0.432,0.181-0.664,0.181
			c-0.234,0-0.459-0.062-0.666-0.181c-0.207-0.121-0.373-0.281-0.49-0.489c-0.117-0.204-0.178-0.425-0.178-0.663
			c0-0.239,0.061-0.461,0.178-0.672c0.117-0.208,0.283-0.371,0.49-0.488c0.207-0.121,0.432-0.182,0.666-0.182
			c0.236,0,0.455,0.061,0.664,0.182c0.203,0.117,0.365,0.28,0.482,0.488c0.121,0.211,0.18,0.431,0.18,0.666
			C65.547,6.143,65.489,6.367,65.371,6.572 M65.553,5.131c-0.143-0.24-0.326-0.429-0.564-0.564
			c-0.234-0.141-0.496-0.207-0.771-0.207c-0.271,0-0.535,0.066-0.771,0.207c-0.234,0.137-0.426,0.326-0.564,0.566
			c-0.141,0.243-0.207,0.502-0.207,0.776c0,0.271,0.066,0.528,0.207,0.769c0.141,0.237,0.33,0.428,0.568,0.564
			c0.236,0.139,0.496,0.207,0.771,0.207c0.273,0,0.533-0.068,0.77-0.208c0.238-0.14,0.432-0.327,0.566-0.565
			c0.139-0.236,0.205-0.496,0.205-0.773C65.762,5.629,65.694,5.374,65.553,5.131"/>
		<path fill="#005A8C" d="M54.006,11.293c0,0,0.041-3.295,2.793-3.295c2.582,0,2.748,3.295,2.748,3.295H54.006z M62.877,12.204
			c0.008-3.811-2.486-6.383-6.043-6.418c-4.953-0.049-6.441,3.777-6.404,6.964c0.039,3.442,2.279,6.495,6.965,6.536
			c1.701,0.012,3.025-0.135,4.627-0.754l-0.729-2.439c0,0-3.186,1.428-5.635,0.014c-1.535-0.887-1.709-2.487-1.709-2.487
			l8.814,0.002C62.764,13.62,62.877,12.878,62.877,12.204"/>
	</g>
	<rect x="44.655" y="0.006" fill="#005A8C" width="3.666" height="19.012"/>
	<g>
		<path fill="#005A8C" d="M37.926,14.835c-0.02,0.826,0.08,1.339-0.334,1.468c-0.961,0.301-4.272,0.807-5.372-2.104
			c-0.361-0.959-0.486-3.287,0.697-4.647c0.942-1.092,1.95-1.115,2.329-1.115c0.51,0,1.102,0.09,1.602,0.486
			c0.514,0.412,0.898,0.975,1.031,2.287C37.949,11.854,37.948,13.946,37.926,14.835 M37.901,0v6.847c0,0-1.693-1.459-4.644-0.996
			c-3.607,0.567-4.986,3.967-5.015,6.461c-0.034,3.561,1.874,5.274,3.65,6.135c1.614,0.779,3.104,0.91,4.668,0.842
			c2.746-0.125,4.979-1.178,4.979-1.178V0H37.901z"/>
		<path fill="#005A8C" d="M20.154,16.885c-2.101,0-3.058-1.984-3.058-4.302c0-2.476,1.018-4.376,3.038-4.376
			c2.034,0,2.986,1.916,2.986,4.301C23.122,14.907,22.15,16.885,20.154,16.885 M20.211,5.801c-4.769,0-6.864,2.928-6.864,6.842
			c0,3.725,2.289,6.647,6.653,6.647c4.516,0,6.867-2.599,6.867-6.879C26.867,8.805,24.677,5.801,20.211,5.801"/>
		<path fill="#005A8C" d="M2.05,25.032l-0.757-2.938c0,0,1.021-0.104,2.604-1.34c1.273-0.998,1.104-2.232,1.104-2.232L0,6.085
			l4.056,0.013l2.999,8.828l2.418-8.841h3.885c0,0-1.128,3.187-2.5,7c-0.919,2.535-1.868,5.472-3.043,7.533
			c-0.885,1.558-1.82,2.562-2.759,3.213C3.488,24.922,2.05,25.032,2.05,25.032"/>
	</g>
</g>
</svg>
